<svg xmlns="http://www.w3.org/2000/svg" viewBox="0 0 200 280" width="200" height="280">
  <!-- Head -->
  <circle cx="100" cy="50" r="30" fill="#1a1a1a"/>
  
  <!-- Body -->
  <path d="M 100 80 L 80 140 L 50 180 L 70 190 L 100 150 L 130 190 L 150 180 L 120 140 Z" fill="#1a1a1a"/>
  
  <!-- Left Arm with Dumbbell -->
  <g>
    <!-- Dumbbell left side -->
    <rect x="10" y="100" width="25" height="12" rx="4" fill="#1a1a1a"/>
    <rect x="10" y="85" width="8" height="42" rx="3" fill="#1a1a1a"/>
    <rect x="27" y="85" width="8" height="42" rx="3" fill="#1a1a1a"/>
    <rect x="12" y="95" width="21" height="8" fill="#1a1a1a"/>
  </g>
  
  <!-- Right Arm with Dumbbell -->
  <g>
    <!-- Dumbbell right side -->
    <rect x="165" y="100" width="25" height="12" rx="4" fill="#1a1a1a"/>
    <rect x="165" y="85" width="8" height="42" rx="3" fill="#1a1a1a"/>
    <rect x="182" y="85" width="8" height="42" rx="3" fill="#1a1a1a"/>
    <rect x="167" y="95" width="21" height="8" fill="#1a1a1a"/>
  </g>
  
  <!-- Bar connecting dumbbells -->
  <rect x="50" y="103" width="100" height="6" rx="2" fill="#1a1a1a"/>
  
  <!-- Legs -->
  <g>
    <path d="M 85 150 L 80 240 L 90 240 L 95 150 Z" fill="#1a1a1a"/>
    <path d="M 115 150 L 110 240 L 120 240 L 105 150 Z" fill="#1a1a1a"/>
  </g>
  
  <!-- Accent gradient circles for modern look -->
  <circle cx="100" cy="50" r="30" fill="none" stroke="#FF94B4" stroke-width="2" opacity="0.6"/>
</svg>
